<?xml version="1.0" encoding="utf-8"?>
<!-- Uploaded to: SVG Repo, www.svgrepo.com, Generator: SVG Repo Mixer Tools -->
<svg width="800px" height="800px" viewBox="0 0 1024 1024" fill="#000000" class="icon"  version="1.1" xmlns="http://www.w3.org/2000/svg"><path d="M598.672 109.44a229.52 229.52 0 0 0 26.496-7.216 180.848 180.848 0 0 0-35.168-28.288c3.264 11.136 6.144 23.04 8.672 35.504zM471.904 70.496c-13.856 7.536-27.2 17.776-39.856 30.48 8.768 3.184 18.864 6.08 30.176 8.448a413.12 413.12 0 0 1 9.68-38.928zM476.912 320.08c16.064 2.512 34 4.048 53.552 4.048s37.472-1.536 53.536-4.048a1545.728 1545.728 0 0 0-1.872-74.592 437.088 437.088 0 0 1-103.344 0 1505.568 1505.568 0 0 0-1.872 74.592zM378.256 177.264c11.344 11.536 36 23.456 70.992 31.088a977.44 977.44 0 0 1 7.488-67.328c-17.216-3.488-33.104-8.272-46.848-14.304a355.728 355.728 0 0 0-31.632 50.544zM572.464 449.68c2.896-10 5.792-20.048 8.816-29.6 1.216-21.248 2.064-43.776 2.448-67.632a391.68 391.68 0 0 1-53.28 3.664c-18.016 0-36.032-1.28-53.296-3.664 0.528 33.376 1.968 64.176 4.08 92.448l1.136 3.952c14.656 2.032 30.688 3.264 48.064 3.264a351.04 351.04 0 0 0 42.032-2.432zM530.096 657.648a1378.624 1378.624 0 0 1 33.344-174.896c-10.88 0.896-21.936 1.376-32.992 1.376-13.008 0-26-0.704-38.736-1.952 13.536 51.504 24.736 108.176 32.816 170.144 1.968 2.608 3.84 4.528 5.568 5.328zM647.376 128.352c-12.88 5.28-27.52 9.504-43.216 12.672a977.44 977.44 0 0 1 7.488 67.328c31.92-6.96 55.232-17.488 67.696-28.032a362.8 362.8 0 0 0-31.968-51.968zM480.784 213.632c15.28 1.84 31.872 2.912 49.68 2.912a415.68 415.68 0 0 0 49.664-2.912 876.336 876.336 0 0 0-7.728-67.776c-13.744 1.456-27.84 2.272-41.936 2.272s-28.192-0.8-41.952-2.272a876.336 876.336 0 0 0-7.728 67.776zM566.752 114.256c-5.28-25.04-11.168-43.408-16.816-56.496a109.472 109.472 0 0 0-21.92-2.256c-5.632 0-11.2 0.576-16.72 1.44-5.744 13.12-11.776 31.776-17.168 57.312a354.528 354.528 0 0 0 72.624 0zM444.912 313.088a1588.32 1588.32 0 0 1 2.208-72.72c-23.056-4.704-44.224-11.44-61.632-20.08a935.728 935.728 0 0 1 45.36 88.272c4.32 1.6 9.072 3.104 14.064 4.528zM622.384 311.168a916.416 916.416 0 0 1 43.232-85.616l0.672-1.12c-15.504 6.672-33.328 12.032-52.528 15.952 1.536 28.432 2.08 53.888 2.208 72.72 2.208-0.64 4.352-1.28 6.416-1.936zM362.448 210.944c-2.48-4.016-4.96-8.032-7.44-11.904a827.616 827.616 0 0 0-12.4-18.72c-38-55.552-74.4-93.328-99.776-116.112 39.888 89.536 58.304 268.592 66.544 391.248 4.688 69.856 6.08 121.488 6.24 127.712 6.352 98.832 23.216 171.712 44.816 225.648 5.92 14.768 12.16 28.144 18.672 40.176 0.352 0.656 0.688 1.36 1.04 2 0.224 0.432 0.464 0.832 0.704 1.248 50.624 91.296 114.832 106.176 138.464 108.464-2.928-66.448-2.64-128.688 0.464-186.608a1623.072 1623.072 0 0 0-7.52-90.336c-8.368-76.08-21.392-143.824-37.264-203.632a1147.744 1147.744 0 0 0-9.616-34.128 1135.392 1135.392 0 0 0-19.296-59.52 1021.92 1021.92 0 0 0-17.296-44.64 971.904 971.904 0 0 0-19.008-43.232 887.712 887.712 0 0 0-33.088-64.048c-4.752-8.24-9.504-15.936-14.24-23.616zM573.024 510.848a1341.504 1341.504 0 0 0-20.496 103.584 1466.96 1466.96 0 0 0-9.68 72.784c-3.04 28.192-5.424 57.472-7.056 87.872a1887.2 1887.2 0 0 0-0.624 185.76l1.12-0.112c38.144-3.696 182.016-40.144 203.696-377.872 0.144-6.208 1.584-59.456 6.464-131.136 8.336-122.224 26.72-298.176 66.064-386.976-23.536 21.408-56.48 55.76-91.504 105.424a792.624 792.624 0 0 0-24.944 37.632c-0.752 1.216-1.52 2.368-2.272 3.616a902.064 902.064 0 0 0-48.768 90.624c-6.176 13.184-12.208 27.04-18.144 41.376a1112.512 1112.512 0 0 0-46.32 137.488c-2.608 9.76-5.104 19.792-7.536 29.936z" /></svg>