<?xml version="1.0" encoding="utf-8"?>
<!-- Uploaded to: SVG Repo, www.svgrepo.com, Generator: SVG Repo Mixer Tools -->
<svg width="800px" height="800px" viewBox="0 0 1024 1024" fill="#000000" class="icon"  version="1.1" xmlns="http://www.w3.org/2000/svg"><path d="M183.571582 490.013671h6.193297a325.271967 325.271967 0 0 0 64.162559 140.092382l-72.957041 73.080906a100.703012 100.703012 0 0 0 142.321969 0l4.335308-4.335308a325.024235 325.024235 0 0 0 32.205145 19.199222 146.533411 146.533411 0 0 1 122.255686 25.516384l35.301794 26.755044 35.301794-26.755044a146.409545 146.409545 0 0 1 112.34641-27.622105 327.501554 327.501554 0 0 0 47.812254-31.338084l71.099052 71.099051 10.404739-7.92742a100.579146 100.579146 0 0 0-8.54675-132.536559l-4.335308-4.335308a324.900369 324.900369 0 0 0 53.757819-144.303824h103.180331a100.703012 100.703012 0 0 0-100.703012-100.703012h-6.193297a325.271967 325.271967 0 0 0-64.286425-140.092382l72.957041-72.95704a100.703012 100.703012 0 0 0-142.321969 0l-4.335308 4.335308a324.900369 324.900369 0 0 0-144.551556-53.633954V0.371598a100.703012 100.703012 0 0 0-100.703012 100.703012v6.317163a325.395833 325.395833 0 0 0-139.968515 63.79096l-72.957041-72.95704a100.703012 100.703012 0 0 0 0 142.321969l4.335308 4.335308a324.900369 324.900369 0 0 0-53.633953 144.427689H82.86857a100.703012 100.703012 0 0 0 100.703012 100.703012z m76.425287-92.032396a252.19106 252.19106 0 0 1 41.371225-111.479348l21.924272-32.452878 31.214218-24.773188a252.438792 252.438792 0 0 1 108.134968-49.546377l38.522308-7.431957 39.38937 4.58304a252.19106 252.19106 0 0 1 111.479349 41.371225l32.452877 21.924272 24.773189 31.214218a252.438792 252.438792 0 0 1 49.546377 108.134968l7.431957 38.522308-4.58304 39.38937a252.19106 252.19106 0 0 1-41.371225 111.479349l-21.924272 32.452877-31.214218 24.773189a252.438792 252.438792 0 0 1-108.134968 49.546377l-38.522309 7.431957-39.38937-4.58304a252.19106 252.19106 0 0 1-111.479348-41.371225l-32.700609-21.924272-24.773189-31.214218a252.438792 252.438792 0 0 1-49.546377-108.134968l-7.431957-38.522309zM517.514165 1023.999752A108.878164 108.878164 0 0 1 451.617483 1001.951614l-37.159783-27.869837a34.80633 34.80633 0 0 0-41.866689 0l-37.159783 27.869837a109.373628 109.373628 0 0 1-131.669497 0l-37.159783-27.869837a34.80633 34.80633 0 0 0-41.866689 0l-48.059986 36.416587A37.17217 37.17217 0 1 1 31.711936 951.290444l48.059986-36.416588a109.373628 109.373628 0 0 1 131.669497 0l37.159783 27.869838a34.80633 34.80633 0 0 0 41.866689 0l37.159783-27.869838a109.373628 109.373628 0 0 1 131.669497 0l37.159783 27.869838a34.80633 34.80633 0 0 0 41.866689 0l37.159783-27.869838a109.373628 109.373628 0 0 1 131.669498 0l37.159783 27.869838a34.80633 34.80633 0 0 0 41.866688 0l37.159783-27.869838a109.373628 109.373628 0 0 1 131.669498 0l37.159783 27.869838a37.17217 37.17217 0 0 1-44.963337 59.20792l-37.159783-27.869837a34.80633 34.80633 0 0 0-41.866689 0l-37.159783 27.869837a109.373628 109.373628 0 0 1-131.669498 0l-37.159783-27.869837a34.80633 34.80633 0 0 0-41.866688 0l-37.159783 27.869837a108.754298 108.754298 0 0 1-65.64895 22.048138zM517.514165 882.173247A108.878164 108.878164 0 0 1 451.617483 860.125109l-37.159783-27.869837a34.80633 34.80633 0 0 0-41.866689 0l-37.159783 27.869837a109.373628 109.373628 0 0 1-131.669497 0l-37.159783-27.869837a34.80633 34.80633 0 0 0-41.866689 0l-48.059986 36.416588a37.17217 37.17217 0 1 1-44.963337-59.207921l48.059986-36.416588a109.373628 109.373628 0 0 1 131.669497 0l37.159783 27.869838a34.80633 34.80633 0 0 0 41.866689 0l37.159783-27.869838a109.373628 109.373628 0 0 1 131.669497 0l37.159783 27.869838a34.80633 34.80633 0 0 0 41.866689 0l37.159783-27.869838a109.373628 109.373628 0 0 1 131.669498 0l37.159783 27.869838a34.80633 34.80633 0 0 0 41.866688 0l37.159783-27.869838a109.373628 109.373628 0 0 1 131.669498 0l37.159783 27.869838a37.17217 37.17217 0 1 1-44.963337 59.20792l-37.159783-27.869837a34.80633 34.80633 0 0 0-41.866689 0l-37.159783 27.869837a109.373628 109.373628 0 0 1-131.669498 0l-37.159783-27.869837a34.80633 34.80633 0 0 0-41.866688 0l-37.159783 27.869837a108.878164 108.878164 0 0 1-65.64895 22.048138zM515.903907 274.48693h74.319566s14.987779 5.20237-17.836695 44.220142-56.606736 73.700236-56.606736 73.700236h103.18033s-52.023696 70.727454-178.862422 228.037201l76.177555-170.439537h-84.104975s-10.033141 1.114793 4.954638-26.011848 78.283276-149.506193 78.283276-149.506194z" /></svg>