<?xml version="1.0" encoding="iso-8859-1"?>
<!-- Uploaded to: SVG Repo, www.svgrepo.com, Generator: SVG Repo Mixer Tools -->
<svg fill="#000000" height="800px" width="800px" version="1.1" id="Layer_1" xmlns="http://www.w3.org/2000/svg" xmlns:xlink="http://www.w3.org/1999/xlink" 
	 viewBox="0 0 512 512" xml:space="preserve">
<g>
	<g>
		<path d="M459.633,240.01L448.996,0H337.772l-10.931,246.651l-13.93,7.462l-6.782-179.978h-75.696l-6.141,162.956l-73.478,39.363
			v-64.497L0.001,292.748V512h511.999V211.956L459.633,240.01z M366.87,30.417h53.028l9.993,225.525l-38.288,20.511v-64.497
			l-27.619,14.796l-5.957,3.192L366.87,30.417z M259.726,104.551h17.112l6.239,165.544l-11.867,6.357v-64.497l-15.851,8.491
			L259.726,104.551z M30.418,481.583V310.96l89.978-48.202v64.497l102.568-54.947l17.828-9.55v64.497l84.483-45.259v0.001
			l35.913-19.239v64.497l99.94-53.538l20.456-10.958v218.825H30.418z"/>
	</g>
</g>
<g>
	<g>
		<path d="M50.699,378.739v82.562H276.8v-82.562H50.699z M115.926,430.885h-34.81v-21.728h34.81V430.885z M181.155,430.885h-34.811
			v-21.728h34.811V430.885z M246.383,430.885h-34.81v-21.728h34.81V430.885z"/>
	</g>
</g>
</svg>