<?xml version="1.0" encoding="UTF-8"?>
<!DOCTYPE svg PUBLIC "-//W3C//DTD SVG 1.1//EN" "http://www.w3.org/Graphics/SVG/1.1/DTD/svg11.dtd">
<!-- Creator: CorelDRAW -->
<svg xmlns="http://www.w3.org/2000/svg" xml:space="preserve" width="2048px" height="2048px" style="shape-rendering:geometricPrecision; text-rendering:geometricPrecision; image-rendering:optimizeQuality; fill-rule:evenodd; clip-rule:evenodd"
viewBox="0 0 2048 2048"
 xmlns:xlink="http://www.w3.org/1999/xlink">
 <defs>
  <style type="text/css">
   <![CDATA[
    .fil2 {fill:none}
    .fil0 {fill:#212121;fill-rule:nonzero}
    .fil1 {fill:#66BB6A;fill-rule:nonzero}
   ]]>
  </style>
 </defs>
 <g id="Layer_x0020_1">
  <metadata id="CorelCorpID_0Corel-Layer"/>
  <path class="fil0" d="M712.597 741.445l622.803 0c20.9103,0 39.2315,10.6902 51.8977,27.9107 10.5661,14.3658 17.126,33.665 17.126,54.4241l0 181.206c0,20.7591 -6.56103,40.0583 -17.126,54.4229 -12.6673,17.2193 -30.9851,27.9118 -51.8977,27.9118l-622.803 0c-20.9114,0 -39.2327,-10.689 -51.8977,-27.9118 -10.5673,-14.3646 -17.126,-33.6638 -17.126,-54.4229l0 -181.206c0,-20.7614 6.55867,-40.0595 17.126,-54.4241 12.6662,-17.2205 30.9874,-27.9107 51.8977,-27.9107zm622.803 64.0016l-622.803 0c-0.549213,0 0.355512,0.636615 -0.396851,1.65945 -2.85355,3.87874 -4.6252,9.75001 -4.6252,16.6736l0 181.206c0,6.92245 1.77284,12.7937 4.6252,16.6725 0.752363,1.02284 -0.152362,1.66063 0.396851,1.66063l622.803 0c0.550394,0 -0.356693,-0.636615 0.396851,-1.66063 2.85236,-3.87874 4.6252,-9.75001 4.6252,-16.6725l0 -181.206c0,-6.92245 -1.77165,-12.7937 -4.6252,-16.6736 -0.752363,-1.02284 0.152362,-1.65945 -0.396851,-1.65945z"/>
  <path class="fil0" d="M1194.7 1055.32c0,-17.6728 -14.328,-32.0008 -32.0008,-32.0008 -17.6728,0 -32.0008,14.328 -32.0008,32.0008l0 187.915c0,17.6728 14.328,32.0008 32.0008,32.0008l162.363 0c0.373229,0 -0.435827,0.144095 -0.237402,0.37441 1.27205,1.47165 2.06339,3.84922 2.06339,6.77245l0 422.813c0,2.92087 -0.791339,5.29843 -2.06339,6.77008 -0.199606,0.231496 0.611811,0.376772 0.237402,0.376772l-602.117 0c-0.373229,0 0.435827,-0.145276 0.236221,-0.375591 -1.27087,-1.47165 -2.06221,-3.84922 -2.06221,-6.77127l0 -422.813c0,-2.92559 0.790158,-5.30315 2.06103,-6.77363 0.198425,-0.230315 -0.607087,-0.373229 -0.23504,-0.373229l162.363 0c17.6728,0 32.0008,-14.328 32.0008,-32.0008l0 -187.915c0,-17.6728 -14.328,-32.0008 -32.0008,-32.0008 -17.6728,0 -32.0008,14.328 -32.0008,32.0008l0 155.914 -130.362 0c-18.9768,0 -35.9528,8.66694 -48.0154,22.6252 -10.989,12.7193 -17.8122,29.9173 -17.8122,48.5233l0 422.813c0,18.6059 6.82441,35.8051 17.8134,48.5209 12.0602,13.9606 29.041,22.6276 48.0142,22.6276l602.117 0c18.9721,0 35.9504,-8.66812 48.013,-22.6288 10.9902,-12.7181 17.8146,-29.9173 17.8146,-48.5197l0 -422.813c0,-18.6012 -6.82441,-35.8028 -17.8146,-48.5221 -12.0591,-13.9571 -29.0351,-22.6264 -48.013,-22.6264l-130.362 0 0 -155.914z"/>
  <polygon class="fil0" points="287.999,1712.34 1760,1712.34 1760,1776.34 287.999,1776.34 "/>
  <path class="fil1" d="M731.292 325.088c87.1099,-72.6438 146.195,-64.8272 182.86,-20.8618 30.5008,36.5764 39.1654,101.593 33.3048,160.505 -6.06142,60.9284 -28.9701,118.598 -60.6945,136.505 -31.7138,17.8996 -65.2217,8.94804 -94.839,-43.5225 -9.36969,-16.5992 -23.9008,-34.9004 -38.1118,-52.7965 -48.8729,-61.5497 -94.8792,-119.487 -22.5189,-179.829zm133.86 19.8886c-13.5189,-16.2106 -42.0485,-13.4717 -93.1099,29.1107 -24.3957,20.3433 2.83819,54.6437 31.7693,91.0784 15.4087,19.4055 31.1646,39.2469 43.6111,61.2981 7.27442,12.887 6.8315,19.9819 8.08938,19.2721 13.3063,-7.51064 24.2232,-44.8276 28.4433,-87.2552 4.42087,-44.4437 -0.173622,-91.1635 -18.8032,-113.504z"/>
  <path class="fil1" d="M428.132 616.037c4.24489,61.4552 20.8394,82.2709 40.9134,81.1512 30.2185,-1.68543 69.6095,-31.917 100.367,-65.139 12.3071,-13.2921 23.3138,-25.9996 31.5059,-36.2941 -55.2024,24.8811 -106.402,22.5638 -144.984,20.8146 -10.774,-0.487796 -20.3858,-0.923623 -27.802,-0.532678zm44.4142 144.902c-56.8241,3.17126 -102.201,-33.828 -108.491,-146.597 -2.60788,-46.728 20.3823,-59.8146 60.3237,-62.0422 10.2532,-0.571654 21.5847,-0.056693 34.3051,0.518504 33.4087,1.51536 78.2186,3.54567 121.472,-17.7189 50.4756,-24.815 79.7859,-17.1579 92.6977,9.10276 13.4102,27.2788 -13.063,83.9717 -56.6906,131.097 -40.102,43.3158 -95.0906,82.9335 -143.616,85.6406zm141.604 -183.853c1.30512,-2.42599 1.83425,-4.10906 1.45276,-4.88504 -1.89921,-3.86457 -1.35473,-0.322441 -1.45276,4.88504z"/>
  <path class="fil1" d="M1466.86 416.105c105.872,-39.1524 157.891,-12.2138 177.659,41.2418 16.8437,45.5457 2.44488,111.699 -21.2717,165.68 -25.8591,58.8615 -67.3713,105.787 -97.8083,104.355 -29.2146,-1.3748 -47.9138,-25.2378 -45.2681,-81.5009 2.2689,-48.2445 -17.3965,-88.4138 -32.0599,-118.365 -5.77087,-11.7898 -10.9134,-22.2921 -14.2784,-31.3914 -13.8532,-37.4646 -10.976,-63.7465 33.0272,-80.0197zm117.659 63.241c-6.94016,-18.7677 -32.6091,-25.6276 -90.6272,-5.06221 2.78386,7.48938 6.87875,15.8539 11.4697,25.2331 16.9984,34.7233 39.5457,80.7875 38.8016,141.135 6.13229,-11.576 13.3441,-26.6445 20.5843,-43.1244 18.2374,-41.5122 30.2835,-89.7591 19.7717,-118.181zm-56.08 184.285c0.842127,0.0389764 2.1437,-1.0937 3.81142,-3.21496 -4.68544,2.12008 -8.07875,3.01418 -3.81142,3.21496z"/>
  <path class="fil1" d="M1678.86 846.218c94.9702,61.18 104.741,118.91 73.9253,166.747 -26.3882,40.963 -87.9922,69.2481 -145.43,82.715 -62.4792,14.6504 -124.867,9.58111 -142.045,-15.6744 -16.4173,-24.1358 -8.5441,-53.3823 38.0327,-85.0619 39.6248,-26.9516 60.0024,-66.9426 75.1961,-96.7607 5.65867,-11.1071 10.7008,-21.0024 16.5744,-30.1193 21.6744,-33.6449 44.413,-47.1863 83.7473,-21.8457zm20.1756 132.247c10.8933,-16.9099 0.99567,-41.6209 -50.3315,-75.6556 -3.69922,5.79213 -8.1626,14.5547 -13.1658,24.3744 -17.5051,34.3559 -40.7303,79.9264 -89.7107,115.754 12.9744,-2.07284 29.4225,-5.38111 47.028,-9.50906 44.1154,-10.3429 89.8583,-29.628 106.18,-54.9638zm-180.976 65.791c0.462992,0.681497 2.13543,1.02874 4.81418,1.07835 -4.47284,-2.43898 -7.1941,-4.57796 -4.81418,-1.07835z"/>
 </g>
 <rect class="fil2" width="2048" height="2048"/>
</svg>
