<?xml version="1.0" encoding="utf-8"?>
<!-- Uploaded to: SVG Repo, www.svgrepo.com, Generator: SVG Repo Mixer Tools -->
<svg width="800px" height="800px" viewBox="0 0 1024 1024" fill="#000000" class="icon"  version="1.1" xmlns="http://www.w3.org/2000/svg"><path d="M107.19232 617.00096h562.14528v77.76256H260.36224c-12.19584-33.49504-44.34944-57.4976-82.0224-57.4976-37.10976 0-68.864 23.296-81.46944 56.02304a37.2224 37.2224 0 0 1-26.90048-35.74784v-3.30752a37.2224 37.2224 0 0 1 37.2224-37.23264z m133.20192 98.85696a65.024 65.024 0 0 1-64.95232 64.94208c-35.79904 0-64.94208-29.1328-64.94208-64.94208s29.14304-64.95232 64.94208-64.95232a65.024 65.024 0 0 1 64.95232 64.95232z m-19.8656 0a45.13792 45.13792 0 0 0-45.08672-45.08672c-24.86272 0-45.07648 20.23424-45.07648 45.08672s20.224 45.07648 45.07648 45.07648a45.11744 45.11744 0 0 0 45.08672-45.07648z m676.32128 0c0 35.80928-29.14304 64.94208-64.95232 64.94208s-64.94208-29.1328-64.94208-64.94208 29.1328-64.95232 64.94208-64.95232 64.95232 29.14304 64.95232 64.95232z m-19.85536 0c0-24.86272-20.23424-45.08672-45.08672-45.08672s-45.07648 20.23424-45.07648 45.08672 20.224 45.07648 45.07648 45.07648 45.08672-20.21376 45.08672-45.07648zM991.56992 529.3056v146.8416c0 6.85056-5.56032 12.41088-12.41088 12.41088h-64.88064c-13.74208-30.21824-44.17536-51.3024-79.48288-51.3024s-65.75104 21.08416-79.49312 51.3024h-43.776a12.41088 12.41088 0 0 1-12.41088-12.41088V381.22496c0-6.8608 5.56032-12.41088 12.41088-12.41088h163.38944c6.85056 0 17.27488 2.28352 24.82176 12.41088l91.83232 148.08064z m-57.9072-32.26624l-55.83872-92.66176c-4.31104-7.97696-9.61536-12.40064-28.54912-12.40064H747.9296c-6.85056 0-12.41088 5.55008-12.41088 12.40064v92.66176c0 6.8608 5.56032 12.41088 12.41088 12.41088h173.32224c6.85056 0 12.41088-5.55008 12.41088-12.41088z m48.384 141.04576a11.58144 11.58144 0 0 0-23.16288 0v21.93408a11.58144 11.58144 0 0 0 23.16288 0v-21.93408zM32.43008 594.78016h636.90752V243.2H32.43008v351.58016z" /></svg>