<?xml version="1.0" encoding="utf-8"?>
<!-- Uploaded to: SVG Repo, www.svgrepo.com, Generator: SVG Repo Mixer Tools -->
<svg width="800px" height="800px" viewBox="0 0 1024 1024" fill="#000000" class="icon"  version="1.1" xmlns="http://www.w3.org/2000/svg"><path d="M512 201.076364c33.978182 55.156364 69.818182 105.658182 103.563636 152.901818C700.741818 473.6 768 568.087273 768 674.909091c0 116.363636-114.269091 256-256 256S256 791.272727 256 674.909091c0-106.821818 67.258182-201.309091 152.436364-320.930909 33.512727-46.545455 69.818182-97.745455 103.563636-152.901818M512 0C395.636364 279.272727 162.909091 442.181818 162.909091 674.909091c0 170.589091 160.581818 349.090909 349.090909 349.090909s349.090909-178.501818 349.090909-349.090909c0-232.727273-232.727273-395.636364-349.090909-674.909091zM575.534545 744.727273a116.363636 116.363636 0 0 1-80.058181-31.650909L465.454545 683.52a23.272727 23.272727 0 0 0-31.883636 0l-28.16 26.763636a46.545455 46.545455 0 1 1-64.232727-67.490909l28.16-26.763636a116.363636 116.363636 0 0 1 160.116363 0L558.545455 645.585455a23.272727 23.272727 0 0 0 31.883636 0l28.16-26.763637a46.545455 46.545455 0 1 1 64.232727 67.490909l-28.16 26.763637a116.363636 116.363636 0 0 1-79.127273 31.650909z" /></svg>